<svg width="143" height="69" viewBox="0 0 143 69" fill="none" xmlns="http://www.w3.org/2000/svg">
<path d="M18.2 0.799995H44.6L61.88 68H53.24L47.96 48.32H14.84L9.56 68H0.92L18.2 0.799995ZM46.04 40.16L37.88 8.96H24.92L16.76 40.16H46.04ZM70.5013 0.799995H78.1813V60.8H89.2213V68H70.5013V0.799995ZM117.099 68.96C113.963 68.96 110.987 68.352 108.171 67.136C105.419 65.856 102.987 64.128 100.875 61.952C98.7628 59.712 97.0988 57.056 95.8828 53.984C94.6668 50.912 94.0588 47.584 94.0588 44C94.0588 40.416 94.6668 37.088 95.8828 34.016C97.0988 30.944 98.7628 28.32 100.875 26.144C102.987 23.904 105.419 22.176 108.171 20.96C110.987 19.68 113.963 19.04 117.099 19.04C120.235 19.04 122.891 19.488 125.067 20.384C127.243 21.28 129.003 22.272 130.347 23.36C131.755 24.384 132.747 25.376 133.323 26.336C133.963 27.232 134.283 27.68 134.283 27.68H134.379V0.799995H142.059V68H134.379V60.32H134.283C134.283 60.32 133.963 60.8 133.323 61.76C132.747 62.656 131.755 63.648 130.347 64.736C129.003 65.76 127.243 66.72 125.067 67.616C122.891 68.512 120.235 68.96 117.099 68.96ZM118.059 61.76C120.363 61.76 122.507 61.344 124.491 60.512C126.475 59.616 128.203 58.4 129.675 56.864C131.147 55.264 132.299 53.376 133.131 51.2C133.963 49.024 134.379 46.624 134.379 44C134.379 41.376 133.963 38.976 133.131 36.8C132.299 34.624 131.147 32.768 129.675 31.232C128.203 29.632 126.475 28.416 124.491 27.584C122.507 26.688 120.363 26.24 118.059 26.24C115.755 26.24 113.611 26.688 111.627 27.584C109.643 28.416 107.915 29.632 106.443 31.232C104.971 32.768 103.819 34.624 102.987 36.8C102.155 38.976 101.739 41.376 101.739 44C101.739 46.624 102.155 49.024 102.987 51.2C103.819 53.376 104.971 55.264 106.443 56.864C107.915 58.4 109.643 59.616 111.627 60.512C113.611 61.344 115.755 61.76 118.059 61.76Z" fill="white"/>
</svg>
