<svg width="341" height="69" viewBox="0 0 341 69" fill="none" xmlns="http://www.w3.org/2000/svg">
<path d="M18.2 0.799995H44.6L61.88 68H53.24L47.96 48.32H14.84L9.56 68H0.92L18.2 0.799995ZM46.04 40.16L37.88 8.96H24.92L16.76 40.16H46.04ZM70.5013 0.799995H78.1813V60.8H89.2213V68H70.5013V0.799995ZM117.099 68.96C113.963 68.96 110.987 68.352 108.171 67.136C105.419 65.856 102.987 64.128 100.875 61.952C98.7628 59.712 97.0988 57.056 95.8828 53.984C94.6668 50.912 94.0588 47.584 94.0588 44C94.0588 40.416 94.6668 37.088 95.8828 34.016C97.0988 30.944 98.7628 28.32 100.875 26.144C102.987 23.904 105.419 22.176 108.171 20.96C110.987 19.68 113.963 19.04 117.099 19.04C120.235 19.04 122.891 19.488 125.067 20.384C127.243 21.28 129.003 22.272 130.347 23.36C131.755 24.384 132.747 25.376 133.323 26.336C133.963 27.232 134.283 27.68 134.283 27.68H134.379V0.799995H142.059V68H134.379V60.32H134.283C134.283 60.32 133.963 60.8 133.323 61.76C132.747 62.656 131.755 63.648 130.347 64.736C129.003 65.76 127.243 66.72 125.067 67.616C122.891 68.512 120.235 68.96 117.099 68.96ZM118.059 61.76C120.363 61.76 122.507 61.344 124.491 60.512C126.475 59.616 128.203 58.4 129.675 56.864C131.147 55.264 132.299 53.376 133.131 51.2C133.963 49.024 134.379 46.624 134.379 44C134.379 41.376 133.963 38.976 133.131 36.8C132.299 34.624 131.147 32.768 129.675 31.232C128.203 29.632 126.475 28.416 124.491 27.584C122.507 26.688 120.363 26.24 118.059 26.24C115.755 26.24 113.611 26.688 111.627 27.584C109.643 28.416 107.915 29.632 106.443 31.232C104.971 32.768 103.819 34.624 102.987 36.8C102.155 38.976 101.739 41.376 101.739 44C101.739 46.624 102.155 49.024 102.987 51.2C103.819 53.376 104.971 55.264 106.443 56.864C107.915 58.4 109.643 59.616 111.627 60.512C113.611 61.344 115.755 61.76 118.059 61.76ZM155.533 20H163.213V27.2H163.309C164.269 25.664 165.517 24.32 167.053 23.168C168.333 22.144 169.997 21.216 172.045 20.384C174.157 19.488 176.653 19.04 179.533 19.04C182.413 19.04 185.037 19.52 187.405 20.48C189.773 21.376 191.789 22.72 193.453 24.512C195.117 26.304 196.397 28.48 197.292 31.04C198.253 33.536 198.733 36.416 198.733 39.68V68H191.053V40.16C191.053 35.36 189.837 31.84 187.405 29.6C185.037 27.36 181.933 26.24 178.093 26.24C175.917 26.24 173.901 26.624 172.045 27.392C170.253 28.096 168.685 29.152 167.341 30.56C166.061 31.968 165.037 33.664 164.269 35.648C163.565 37.568 163.213 39.712 163.213 42.08V68H155.533V20ZM211.689 0.799995H219.369V60.8H230.409V68H211.689V0.799995ZM259.726 68.96C256.27 68.96 253.038 68.352 250.03 67.136C247.022 65.856 244.43 64.128 242.254 61.952C240.078 59.712 238.35 57.056 237.07 53.984C235.854 50.912 235.246 47.584 235.246 44C235.246 40.416 235.854 37.088 237.07 34.016C238.35 30.944 240.078 28.32 242.254 26.144C244.43 23.904 247.022 22.176 250.03 20.96C253.038 19.68 256.27 19.04 259.726 19.04C263.182 19.04 266.414 19.68 269.422 20.96C272.43 22.176 275.022 23.872 277.198 26.048C279.374 28.224 281.07 30.816 282.286 33.824C283.566 36.832 284.206 40.064 284.206 43.52V46.4H242.926C243.182 48.64 243.79 50.72 244.75 52.64C245.71 54.496 246.926 56.096 248.398 57.44C249.87 58.784 251.566 59.84 253.486 60.608C255.47 61.376 257.55 61.76 259.726 61.76C262.606 61.76 265.038 61.312 267.022 60.416C269.006 59.52 270.638 58.528 271.918 57.44C273.39 56.224 274.606 54.784 275.566 53.12H283.246C282.094 56.128 280.462 58.784 278.35 61.088C276.494 63.072 274.062 64.896 271.054 66.56C268.046 68.16 264.27 68.96 259.726 68.96ZM276.046 39.68C275.79 37.888 275.214 36.192 274.318 34.592C273.486 32.928 272.366 31.488 270.958 30.272C269.55 29.056 267.886 28.096 265.966 27.392C264.11 26.624 262.03 26.24 259.726 26.24C257.422 26.24 255.31 26.624 253.39 27.392C251.534 28.096 249.87 29.056 248.398 30.272C246.99 31.488 245.838 32.928 244.942 34.592C244.046 36.192 243.438 37.888 243.118 39.68H276.046ZM316.351 68.96C312.895 68.96 309.663 68.352 306.655 67.136C303.647 65.856 301.055 64.128 298.879 61.952C296.703 59.712 294.975 57.056 293.695 53.984C292.479 50.912 291.871 47.584 291.871 44C291.871 40.416 292.479 37.088 293.695 34.016C294.975 30.944 296.703 28.32 298.879 26.144C301.055 23.904 303.647 22.176 306.655 20.96C309.663 19.68 312.895 19.04 316.351 19.04C319.807 19.04 323.039 19.68 326.047 20.96C329.055 22.176 331.647 23.872 333.823 26.048C335.999 28.224 337.695 30.816 338.911 33.824C340.191 36.832 340.831 40.064 340.831 43.52V46.4H299.551C299.807 48.64 300.415 50.72 301.375 52.64C302.335 54.496 303.551 56.096 305.023 57.44C306.495 58.784 308.191 59.84 310.111 60.608C312.095 61.376 314.175 61.76 316.351 61.76C319.231 61.76 321.663 61.312 323.647 60.416C325.631 59.52 327.263 58.528 328.543 57.44C330.015 56.224 331.231 54.784 332.191 53.12H339.871C338.719 56.128 337.087 58.784 334.975 61.088C333.119 63.072 330.687 64.896 327.679 66.56C324.671 68.16 320.895 68.96 316.351 68.96ZM332.671 39.68C332.415 37.888 331.839 36.192 330.943 34.592C330.111 32.928 328.991 31.488 327.583 30.272C326.175 29.056 324.511 28.096 322.591 27.392C320.735 26.624 318.655 26.24 316.351 26.24C314.047 26.24 311.935 26.624 310.015 27.392C308.159 28.096 306.495 29.056 305.023 30.272C303.615 31.488 302.463 32.928 301.567 34.592C300.671 36.192 300.063 37.888 299.743 39.68H332.671Z" fill="white"/>
</svg>
