<svg width="127" height="68" viewBox="0 0 127 68" fill="none" xmlns="http://www.w3.org/2000/svg">
<path d="M-0.000175238 -0.000785828H28.3198C32.1598 -0.000785828 35.6158 0.575214 38.6878 1.72721C41.7598 2.81522 44.3838 4.35122 46.5598 6.33522C48.7358 8.31922 50.3998 10.6552 51.5518 13.3432C52.7038 16.0312 53.2798 18.9432 53.2798 22.0792C53.2798 25.2152 52.7038 28.1272 51.5518 30.8152C50.3998 33.5032 48.7358 35.8392 46.5598 37.8232C44.3838 39.8072 41.7598 41.3752 38.6878 42.5272C35.6158 43.6152 32.1598 44.1592 28.3198 44.1592H8.63982V67.1992H-0.000175238V-0.000785828ZM28.3198 35.9992C33.6318 35.9992 37.6638 34.7192 40.4158 32.1592C43.2318 29.5352 44.6398 26.1752 44.6398 22.0792C44.6398 17.9832 43.2318 14.6552 40.4158 12.0952C37.6638 9.47122 33.6318 8.15922 28.3198 8.15922H8.63982V35.9992H28.3198ZM65.2723 26.3992H59.0323V19.1992H65.2723V8.63922H72.9523V19.1992H88.3123V26.3992H72.9523V59.9992H88.7923V67.1992H65.2723V26.3992ZM98.4148 19.1992H106.095V26.8792H106.191C107.023 25.3432 108.111 23.9992 109.455 22.8472C110.607 21.8232 112.111 20.8952 113.967 20.0632C115.823 19.1672 118.159 18.7192 120.975 18.7192H126.735V26.3992H120.975C118.799 26.3992 116.783 26.7832 114.927 27.5512C113.135 28.2552 111.567 29.2792 110.223 30.6232C108.943 31.9032 107.919 33.4712 107.151 35.3272C106.447 37.1192 106.095 39.1032 106.095 41.2792V67.1992H98.4148V19.1992Z" fill="white"/>
</svg>
