<svg width="412" height="69" viewBox="0 0 412 69" fill="none" xmlns="http://www.w3.org/2000/svg">
<path d="M-0.000175238 -0.000785828H28.3198C32.1598 -0.000785828 35.6158 0.575214 38.6878 1.72721C41.7598 2.81522 44.3838 4.35122 46.5598 6.33522C48.7358 8.31922 50.3998 10.6552 51.5518 13.3432C52.7038 16.0312 53.2798 18.9432 53.2798 22.0792C53.2798 25.2152 52.7038 28.1272 51.5518 30.8152C50.3998 33.5032 48.7358 35.8392 46.5598 37.8232C44.3838 39.8072 41.7598 41.3752 38.6878 42.5272C35.6158 43.6152 32.1598 44.1592 28.3198 44.1592H8.63982V67.1992H-0.000175238V-0.000785828ZM28.3198 35.9992C33.6318 35.9992 37.6638 34.7192 40.4158 32.1592C43.2318 29.5352 44.6398 26.1752 44.6398 22.0792C44.6398 17.9832 43.2318 14.6552 40.4158 12.0952C37.6638 9.47122 33.6318 8.15922 28.3198 8.15922H8.63982V35.9992H28.3198ZM65.2723 26.3992H59.0323V19.1992H65.2723V8.63922H72.9523V19.1992H88.3123V26.3992H72.9523V59.9992H88.7923V67.1992H65.2723V26.3992ZM98.4148 19.1992H106.095V26.8792H106.191C107.023 25.3432 108.111 23.9992 109.455 22.8472C110.607 21.8232 112.111 20.8952 113.967 20.0632C115.823 19.1672 118.159 18.7192 120.975 18.7192H126.735V26.3992H120.975C118.799 26.3992 116.783 26.7832 114.927 27.5512C113.135 28.2552 111.567 29.2792 110.223 30.6232C108.943 31.9032 107.919 33.4712 107.151 35.3272C106.447 37.1192 106.095 39.1032 106.095 41.2792V67.1992H98.4148V19.1992ZM134.884 19.1992H142.564V26.3992H142.66C143.556 24.8632 144.74 23.5192 146.212 22.3672C147.492 21.3432 149.124 20.4152 151.108 19.5832C153.092 18.6872 155.524 18.2392 158.404 18.2392C161.284 18.2392 163.684 18.7512 165.604 19.7752C167.588 20.7352 169.188 21.8232 170.404 23.0392C171.812 24.4472 172.932 26.0472 173.764 27.8392H174.244C175.268 26.0472 176.612 24.4472 178.276 23.0392C179.684 21.8232 181.508 20.7352 183.748 19.7752C185.988 18.7512 188.74 18.2392 192.004 18.2392C194.5 18.2392 196.836 18.7192 199.012 19.6792C201.188 20.5752 203.076 21.9192 204.676 23.7112C206.276 25.5032 207.524 27.6792 208.42 30.2392C209.316 32.7352 209.764 35.6152 209.764 38.8792V67.1992H202.084V39.3592C202.084 34.7512 200.996 31.2952 198.82 28.9912C196.708 26.6232 193.956 25.4392 190.564 25.4392C188.644 25.4392 186.82 25.8552 185.092 26.6872C183.364 27.4552 181.828 28.5112 180.484 29.8552C179.14 31.1992 178.084 32.7672 177.316 34.5592C176.548 36.3512 176.164 38.2712 176.164 40.3192V67.1992H168.484V39.3592C168.484 34.8152 167.396 31.3592 165.22 28.9912C163.108 26.6232 160.356 25.4392 156.964 25.4392C155.044 25.4392 153.22 25.8552 151.492 26.6872C149.764 27.4552 148.228 28.5112 146.884 29.8552C145.54 31.1992 144.484 32.7672 143.716 34.5592C142.948 36.3512 142.564 38.2712 142.564 40.3192V67.1992H134.884V19.1992ZM222.727 -0.000785828H230.407V59.9992H241.447V67.1992H222.727V-0.000785828ZM269.325 68.1592C266.189 68.1592 263.213 67.5512 260.397 66.3352C257.645 65.0552 255.213 63.3272 253.101 61.1512C250.989 58.9112 249.325 56.2552 248.109 53.1832C246.893 50.1112 246.285 46.7832 246.285 43.1992C246.285 39.6152 246.893 36.2872 248.109 33.2152C249.325 30.1432 250.989 27.5192 253.101 25.3432C255.213 23.1032 257.645 21.3752 260.397 20.1592C263.213 18.8792 266.189 18.2392 269.325 18.2392C272.461 18.2392 275.117 18.6872 277.293 19.5832C279.469 20.4792 281.229 21.4712 282.573 22.5592C283.981 23.5832 284.973 24.5752 285.549 25.5352C286.189 26.4312 286.509 26.8792 286.509 26.8792H286.605V-0.000785828H294.285V67.1992H286.605V59.5192H286.509C286.509 59.5192 286.189 59.9992 285.549 60.9592C284.973 61.8552 283.981 62.8472 282.573 63.9352C281.229 64.9592 279.469 65.9192 277.293 66.8152C275.117 67.7112 272.461 68.1592 269.325 68.1592ZM270.285 60.9592C272.589 60.9592 274.733 60.5432 276.717 59.7112C278.701 58.8152 280.429 57.5992 281.901 56.0632C283.373 54.4632 284.525 52.5752 285.357 50.3992C286.189 48.2232 286.605 45.8232 286.605 43.1992C286.605 40.5752 286.189 38.1752 285.357 35.9992C284.525 33.8232 283.373 31.9672 281.901 30.4312C280.429 28.8312 278.701 27.6152 276.717 26.7832C274.733 25.8872 272.589 25.4392 270.285 25.4392C267.981 25.4392 265.837 25.8872 263.853 26.7832C261.869 27.6152 260.141 28.8312 258.669 30.4312C257.197 31.9672 256.045 33.8232 255.213 35.9992C254.381 38.1752 253.965 40.5752 253.965 43.1992C253.965 45.8232 254.381 48.2232 255.213 50.3992C256.045 52.5752 257.197 54.4632 258.669 56.0632C260.141 57.5992 261.869 58.8152 263.853 59.7112C265.837 60.5432 267.981 60.9592 270.285 60.9592ZM327.919 68.1592C324.783 68.1592 321.807 67.5512 318.991 66.3352C316.239 65.0552 313.807 63.3272 311.695 61.1512C309.583 58.9112 307.919 56.2552 306.703 53.1832C305.487 50.1112 304.879 46.7832 304.879 43.1992C304.879 39.6152 305.487 36.2872 306.703 33.2152C307.919 30.1432 309.583 27.5192 311.695 25.3432C313.807 23.1032 316.239 21.3752 318.991 20.1592C321.807 18.8792 324.783 18.2392 327.919 18.2392C331.055 18.2392 333.711 18.6872 335.887 19.5832C338.063 20.4792 339.823 21.4712 341.167 22.5592C342.575 23.6472 343.567 24.6712 344.143 25.6312C344.783 26.5272 345.103 26.9752 345.103 26.9752H345.199V19.1992H352.879V67.1992H345.199V59.5192H345.103C345.103 59.5192 344.783 59.9992 344.143 60.9592C343.567 61.8552 342.575 62.8472 341.167 63.9352C339.823 64.9592 338.063 65.9192 335.887 66.8152C333.711 67.7112 331.055 68.1592 327.919 68.1592ZM328.879 60.9592C331.183 60.9592 333.327 60.5432 335.311 59.7112C337.295 58.8152 339.023 57.5992 340.495 56.0632C341.967 54.4632 343.119 52.5752 343.951 50.3992C344.783 48.2232 345.199 45.8232 345.199 43.1992C345.199 40.5752 344.783 38.1752 343.951 35.9992C343.119 33.8232 341.967 31.9672 340.495 30.4312C339.023 28.8312 337.295 27.6152 335.311 26.7832C333.327 25.8872 331.183 25.4392 328.879 25.4392C326.575 25.4392 324.431 25.8872 322.447 26.7832C320.463 27.6152 318.735 28.8312 317.263 30.4312C315.791 31.9672 314.639 33.8232 313.807 35.9992C312.975 38.1752 312.559 40.5752 312.559 43.1992C312.559 45.8232 312.975 48.2232 313.807 50.3992C314.639 52.5752 315.791 54.4632 317.263 56.0632C318.735 57.5992 320.463 58.8152 322.447 59.7112C324.431 60.5432 326.575 60.9592 328.879 60.9592ZM386.512 68.1592C383.376 68.1592 380.4 67.5512 377.584 66.3352C374.832 65.0552 372.4 63.3272 370.288 61.1512C368.176 58.9112 366.512 56.2552 365.296 53.1832C364.08 50.1112 363.472 46.7832 363.472 43.1992C363.472 39.6152 364.08 36.2872 365.296 33.2152C366.512 30.1432 368.176 27.5192 370.288 25.3432C372.4 23.1032 374.832 21.3752 377.584 20.1592C380.4 18.8792 383.376 18.2392 386.512 18.2392C389.648 18.2392 392.304 18.6872 394.48 19.5832C396.656 20.4792 398.416 21.4712 399.76 22.5592C401.168 23.6472 402.16 24.6712 402.736 25.6312C403.376 26.5272 403.696 26.9752 403.696 26.9752H403.792V19.1992H411.472V67.1992H403.792V59.5192H403.696C403.696 59.5192 403.376 59.9992 402.736 60.9592C402.16 61.8552 401.168 62.8472 399.76 63.9352C398.416 64.9592 396.656 65.9192 394.48 66.8152C392.304 67.7112 389.648 68.1592 386.512 68.1592ZM387.472 60.9592C389.776 60.9592 391.92 60.5432 393.904 59.7112C395.888 58.8152 397.616 57.5992 399.088 56.0632C400.56 54.4632 401.712 52.5752 402.544 50.3992C403.376 48.2232 403.792 45.8232 403.792 43.1992C403.792 40.5752 403.376 38.1752 402.544 35.9992C401.712 33.8232 400.56 31.9672 399.088 30.4312C397.616 28.8312 395.888 27.6152 393.904 26.7832C391.92 25.8872 389.776 25.4392 387.472 25.4392C385.168 25.4392 383.024 25.8872 381.04 26.7832C379.056 27.6152 377.328 28.8312 375.856 30.4312C374.384 31.9672 373.232 33.8232 372.4 35.9992C371.568 38.1752 371.152 40.5752 371.152 43.1992C371.152 45.8232 371.568 48.2232 372.4 50.3992C373.232 52.5752 374.384 54.4632 375.856 56.0632C377.328 57.5992 379.056 58.8152 381.04 59.7112C383.024 60.5432 385.168 60.9592 387.472 60.9592Z" fill="black"/>
</svg>
